# xmcd
#
# Track frame offsets: 
#        150
#        20769
#        58277
#        77684
#        94835
#        108931
#        129988
#        146332
#        167408
#        213024
#        256788
#        274988
#        293937
#        314659
#
# Disc length: 4401 seconds
#
# Revision: 0
# Processed by: cddbd v1.5.2PL0 Copyright (c) Steve Scherf et al.
# Submitted via: ExactAudioCopy v1.3
#
DISCID=c7112f0e
DTITLE=Big Daddy Wilson - Blues Caravan 2017
DYEAR=2018
DGENRE=Blues
TTITLE0=Unchain My Heart
TTITLE1=Tongue Tied
TTITLE2=Poisoned The Well
TTITLE3=Two Parts Sugar, One Part Lime
TTITLE4=All Around The World
TTITLE5=Coupe De Ville
TTITLE6=Run Free
TTITLE7=Cross Creek Road
TTITLE8=Walk A Mile In My Shoes
TTITLE9=Country Boy Soul Medley
TTITLE10=You're Gonna Make Me Cry
TTITLE11=I Wanna Know Why
TTITLE12=Bring It On Home To Me
TTITLE13=Twistin' The Night Away
EXTD=
EXTT0=
EXTT1=
EXTT2=
EXTT3=
EXTT4=
EXTT5=
EXTT6=
EXTT7=
EXTT8=
EXTT9=
EXTT10=
EXTT11=
EXTT12=
EXTT13=
PLAYORDER=
